<?xml version="1.0" encoding="UTF-8"?>
<!DOCTYPE svg PUBLIC "-//W3C//DTD SVG 1.1//EN" "http://www.w3.org/Graphics/SVG/1.1/DTD/svg11.dtd">
<!-- Creator: CorelDRAW -->
<svg xmlns="http://www.w3.org/2000/svg" xml:space="preserve" width="644.165mm" height="406.627mm" version="1.1" style="shape-rendering:geometricPrecision; text-rendering:geometricPrecision; image-rendering:optimizeQuality; fill-rule:evenodd; clip-rule:evenodd"
viewBox="0 0 22806.28 14396.4"
 xmlns:xlink="http://www.w3.org/1999/xlink"
 xmlns:xodm="http://www.corel.com/coreldraw/odm/2003">
 <defs>
  <style type="text/css">
   <![CDATA[
    .fil7 {fill:#FEFEFE}
    .fil2 {fill:#E6E7E8}
    .fil4 {fill:#373435}
    .fil3 {fill:#FFCC29}
    .fil8 {fill:#F0989A}
    .fil5 {fill:#E5AD36}
    .fil14 {fill:#362C2B}
    .fil9 {fill:#201E1E}
    .fil0 {fill:#341A16}
    .fil1 {fill:#FEFEFE;fill-rule:nonzero}
    .fil6 {fill:#341A16;fill-rule:nonzero}
    .fil13 {fill:url(#id6)}
    .fil11 {fill:url(#id7)}
    .fil10 {fill:url(#id8)}
    .fil12 {fill:url(#id9)}
   ]]>
  </style>
    <clipPath id="id0">
     <rect x="7062.48" y="6708.12" width="1726.96" height="1815.35"/>
    </clipPath>
    <clipPath id="id1">
     <path d="M7062.48 6708.12l0 1815.35 1726.96 0 0 -1815.35 -1726.96 0z"/>
    </clipPath>
    <clipPath id="id2">
     <rect x="7062.48" y="6708.12" width="1726.96" height="1815.35"/>
    </clipPath>
    <clipPath id="id3">
     <rect x="3269.92" y="6289.51" width="1726.96" height="1815.35"/>
    </clipPath>
    <clipPath id="id4">
     <path d="M3269.92 6289.51l0 1815.35 1726.96 0 0 -1815.35 -1726.96 0z"/>
    </clipPath>
    <clipPath id="id5">
     <rect x="3269.92" y="6289.51" width="1726.96" height="1815.35"/>
    </clipPath>
  <radialGradient id="id6" gradientUnits="userSpaceOnUse" gradientTransform="matrix(-1.1932 0.780765 -0.780763 -1.1932 20826 8138)" cx="7255.23" cy="6293.49" r="24.13" fx="7255.23" fy="6293.49">
   <stop offset="0" style="stop-opacity:1; stop-color:#DDC58B"/>
   <stop offset="1" style="stop-opacity:1; stop-color:#CAA146"/>
  </radialGradient>
  <radialGradient id="id7" gradientUnits="userSpaceOnUse" gradientTransform="matrix(-1.19603 0.788232 -0.788232 -1.19603 16364 8864)" xlink:href="#id6" cx="5317.61" cy="5945.06" r="600.57" fx="5317.61" fy="5945.06">
  </radialGradient>
  <radialGradient id="id8" gradientUnits="userSpaceOnUse" gradientTransform="matrix(-0.0953439 2.23775 -2.23775 -0.0953441 18948 -5504)" cx="5327.82" cy="5859.38" r="848.19" fx="5327.82" fy="5859.38">
   <stop offset="0" style="stop-opacity:1; stop-color:#FEFEFE"/>
   <stop offset="1" style="stop-opacity:1; stop-color:#FAEAD0"/>
  </radialGradient>
  <radialGradient id="id9" gradientUnits="userSpaceOnUse" gradientTransform="matrix(0.0455659 -1.09416 1.09416 0.0455659 151 13885)" xlink:href="#id8" cx="7274.76" cy="6207.86" r="77.31" fx="7274.76" fy="6207.86">
  </radialGradient>
 </defs>
 <g id="Camada_x0020_1">
  <metadata id="CorelCorpID_0Corel-Layer"/>
  <g id="_2319467837328">
   <path class="fil0" d="M17326.49 6391.84c353.83,-307.76 837.8,-455.65 1344.09,-457.84 310.55,-1.35 664.86,47.63 981.51,140.19l9.87 -61.86c7.08,-44.35 21.81,-188.45 -6.69,-227.67 -59.48,-73.74 -295.26,-88.53 -378.9,-88.17 -282.07,1.22 -580.56,68.75 -851.32,148.47l-527.38 155.27c-109.06,32.1 -222.29,-28.59 -261.73,-140.3l-250.68 -709.92c-35.77,-101.28 -1.28,-212.09 84.52,-271.58 627.17,-434.89 1382.29,-754.24 2140.04,-757.5 530.26,-2.29 1134.28,133.11 1482.53,590.51 325.85,406.22 335.83,922.12 255.67,1424.49l-237.66 1489.37 351.35 84.6c112.18,27.01 184.57,141.13 165.47,260.83l-110.66 693.48c-12.52,78.42 -57.78,139.8 -126.83,171.96 -263.35,122.66 -665.23,229.06 -952.59,230.31 -319,1.38 -559.5,-127.97 -773.49,-342.91l-122.13 62.9c-377.11,194.2 -787.4,332.27 -1210.1,334.09 -515.24,2.22 -1036.94,-179.7 -1338.04,-640.84l-76.36 478.56c-17.73,111.1 -107.05,191.08 -213.89,191.54l-1266.06 5.46c-66.27,0.28 -123.37,-27.4 -166.21,-80.58 -42.85,-53.19 -59.51,-117.08 -48.52,-185.98l425.39 -2665.83c7.08,-44.35 21.89,-188.37 -6.76,-227.77 -2.53,-3.14 -4.55,-5.78 -6.92,-9.05 -44.08,-60.73 -309.8,-70.27 -373.41,-70.02l-17.34 0.07c-187.26,0.75 -416.61,25.25 -601.42,85l-473.77 2969.04c-17.73,111.1 -107.04,191.08 -213.88,191.54l-1266.07 5.46c-31.07,0.13 -60.11,-5.88 -86.62,-17.78 -34.94,78.62 -109.8,130.87 -196.1,131.24l-1266.06 5.45c-66.27,0.28 -123.36,-27.39 -166.21,-80.58 -42.85,-53.19 -59.51,-117.09 -48.52,-185.98l425.38 -2665.83c7.08,-44.35 21.89,-188.35 -6.74,-227.75 -2.54,-3.15 -4.57,-5.79 -6.95,-9.07 -44.07,-60.72 -309.78,-70.27 -373.4,-70.02l-17.34 0.07c-187.26,0.75 -416.61,25.25 -601.42,85l-473.76 2969.03c-17.73,111.1 -107.05,191.08 -213.89,191.54l-1266.07 5.46c-66.27,0.28 -123.36,-27.4 -166.21,-80.58 -42.85,-53.19 -59.51,-117.08 -48.52,-185.98l701.31 -4395.03c17.73,-111.1 107.05,-191.08 213.89,-191.54l971.24 -4.19c103.04,-0.44 189.94,72.54 212.48,178.48l21.44 100.78c375.35,-212.33 761.36,-355.57 1191.05,-357.41 487.8,-2.11 962.98,162.21 1285.2,561.65 0.89,1.12 1.64,2.07 2.53,3.2 121.68,156.56 202.41,327.94 251.5,508.14l148.38 -929.88c17.73,-111.1 107.04,-191.08 213.89,-191.54l971.23 -4.19c103.04,-0.44 189.94,72.54 212.48,178.48l21.44 100.79c375.34,-212.33 761.35,-355.57 1191.05,-357.41 487.8,-2.11 962.98,162.19 1285.2,561.64 0.9,1.12 1.65,2.07 2.53,3.2 325.59,418.89 357.93,943.89 275.59,1459.91l-21.61 135.41zm1111.24 931.22c-10.36,20.95 -18.31,59.31 -21.06,76.54 -6.99,43.77 -9.22,99.09 13.33,138.72 52.59,92.44 235.36,105.71 323.06,105.33 204.4,-0.89 475.21,-56.77 670.99,-140.44l31.36 -196.48 -939.26 4.04c-17.36,0.07 -56.49,2.22 -78.42,12.29zm-18434.44 2125.7l952.8 -5971.12c17.73,-111.1 107.04,-191.08 213.89,-191.54l1650.23 -7.11c781.93,-3.37 1617.23,141.01 2117.67,838.22 486.42,677.69 486.6,1604.49 358.61,2406.58 -140.6,881.19 -460.95,1741.55 -1096.38,2358.29 -651.72,632.54 -1466.08,822.39 -2331.87,826.13l-1650.23 7.12c-66.27,0.28 -123.36,-27.4 -166.21,-80.58 -42.85,-53.19 -59.51,-117.09 -48.52,-185.98zm2252.44 -4494.22l-491.62 3081 255.18 -1.1c423.08,-1.83 916.81,-52.08 1230.9,-387.61 289.72,-309.49 413.64,-776.68 480.09,-1193.15 55.15,-345.61 107.35,-847.88 -86.28,-1159.08 -201.54,-323.89 -734.04,-342.89 -1059.09,-341.49l-329.18 1.43z"/>
   <path class="fil1" d="M217.59 9486.28l1650.24 -7.12c905.87,-3.91 1621.52,-222.99 2185.26,-765.43 507.4,-497.18 869.59,-1227.75 1029.11,-2227.44 160.96,-1008.7 31.59,-1737.14 -317.73,-2230.64 -391.29,-538.31 -1037.95,-751.53 -1943.83,-747.62l-1650.24 7.12 -952.81 5971.13zm1802.11 -1222.78l-512.62 2.21 564.79 -3539.43 512.62 -2.21c617.97,-2.67 1034.66,112.54 1241.32,444.65 173.13,278.25 220.82,683.05 118.78,1322.49 -99.16,621.43 -277.62,1036.2 -539.86,1316.33 -313,334.35 -767.06,453.31 -1385.03,455.97z"/>
   <path class="fil1" d="M10062.52 4669.65l-971.23 4.18 -701.31 4395.04 1266.06 -5.46 475.69 -2981.06c11.5,-72.05 18.69,-117.08 102.47,-153.44 174.82,-63.75 442.16,-109.91 710.99,-111.06l17.34 -0.08c286.16,-1.24 468.32,51.98 546.45,159.65 65.12,80.71 85.48,224.63 55.3,413.76l-425.39 2665.84 1266.07 -5.46 431.14 -2701.87c91.97,-576.4 0.56,-981.01 -229.52,-1277.01 -253.21,-313.91 -642.15,-483.23 -1119.09,-481.17 -381.55,1.65 -731.2,129.16 -1102.45,337.76l-238.35 136.03 -84.18 -395.64z"/>
   <path class="fil1" d="M14360.22 4538.86l-971.23 4.19 -701.31 4395.04 1266.06 -5.46 475.69 -2981.06c11.49,-72.05 18.68,-117.08 102.48,-153.44 174.82,-63.75 442.15,-109.91 710.98,-111.06l17.34 -0.08c286.16,-1.24 468.31,51.98 546.45,159.64 65.12,80.71 85.48,224.63 55.3,413.76l-425.39 2665.84 1266.07 -5.46 431.13 -2701.87c91.98,-576.4 0.56,-981.01 -229.52,-1277.01 -253.21,-313.91 -642.14,-483.23 -1119.09,-481.17 -381.55,1.65 -731.2,129.15 -1102.45,337.75l-238.34 136.03 -84.19 -395.64z"/>
   <path class="fil1" d="M19876.26 6049.85l-51.74 324.23c-333.98,-133.56 -780.64,-212.64 -1153.52,-211.03 -832.48,3.59 -1531.63,420.6 -1666.72,1267.19 -133.64,837.58 398.79,1465.28 1326.66,1461.28 346.87,-1.49 718.22,-102.09 1115.48,-310.81l264.36 -136.14c211.24,251.09 422.39,394.17 725.9,392.86 251.47,-1.09 631.49,-101.72 865.53,-210.73l110.66 -693.48 -550.77 -132.62 271.62 -1702.17c93.41,-585.4 15.03,-963.07 -209.24,-1241.1 -264.81,-349.86 -750.57,-509.76 -1314.23,-507.33 -693.73,2.99 -1407.44,294.07 -2021.3,719.72l250.68 709.92 527.39 -155.28c345.32,-100.49 648.79,-155.8 908.94,-156.92 242.8,-1.05 450.98,52.06 545.02,168.65 65.12,80.71 85.48,224.63 55.3,413.77zm-176.77 1107.76l-64.68 405.28c-10.06,63.05 -43.25,108.19 -90.93,135.4 -215.25,99.92 -538.93,173.32 -790.41,174.4 -407.56,1.76 -601.41,-195.4 -551.12,-510.62 14.37,-90.07 43.2,-162.18 85.08,-207.37 50.55,-45.23 124.22,-72.54 228.29,-72.99l1118.65 -4.83c52.02,-0.23 73.72,26.68 65.11,80.72z"/>
   <path class="fil2" d="M217.6 9486.28l1650.23 -7.12c905.88,-3.91 1621.52,-223 2185.26,-765.42 393.88,-385.96 700.23,-912.59 892.22,-1596.53 -367.03,-58.21 -731.27,-120.93 -1092.44,-188.63 -104.21,387.35 -252.97,670.45 -448.15,878.95 -313,334.35 -767.05,453.3 -1385.01,455.97l-512.62 2.22 284.51 -1783.06c-353.25,-86.85 -703.52,-178.54 -1050.82,-275.04l-523.17 3278.66z"/>
   <path class="fil2" d="M11363.64 7648.54l-224.75 1408.46 1266.06 -5.45 223.72 -1402c-424.89,4.85 -846.56,4.51 -1265.03,-1.01z"/>
   <path class="fil2" d="M8634.57 7535.96l-244.61 1532.9 1266.07 -5.46 232.35 -1456.08c-421.32,-18.31 -839.24,-42.12 -1253.81,-71.36z"/>
   <path class="fil2" d="M15659.33 7530.37l-222.74 1395.86 1266.06 -5.46 237.61 -1489.03c-429.98,37.75 -856.91,70.54 -1280.93,98.64z"/>
   <path class="fil2" d="M12893.81 7646.24l-206.13 1291.85 1266.07 -5.46 211.03 -1322.47c-426.75,17.05 -850.45,29.14 -1270.96,36.08z"/>
   <path class="fil2" d="M17005.04 7425.87l-0.75 4.37c-133.66,837.58 398.77,1465.28 1326.64,1461.28 346.87,-1.49 718.21,-102.11 1115.47,-310.81l264.36 -136.14c211.24,251.09 422.38,394.19 725.89,392.87 251.48,-1.09 631.5,-101.72 865.53,-210.73l110.66 -693.48 -550.77 -132.62 136.47 -855.23c-435.31,65.52 -867.81,126.47 -1297.55,182.94 0.72,8.68 0.23,18.44 -1.51,29.3l-64.68 405.27c-10.05,63.04 -43.26,108.19 -90.93,135.39 -215.26,99.94 -538.93,173.33 -790.41,174.42 -407.56,1.75 -601.42,-195.4 -551.12,-510.62 3.08,-19.27 6.82,-37.71 11.19,-55.24 -405.45,43.93 -808.2,83.46 -1208.51,119.04z"/>
   <path class="fil0" d="M8416.87 4342.19c208.78,452.33 331.82,1005.3 396.61,1481.21 54.39,399.55 79.24,807.46 65.71,1211.14 -10.62,317.13 -44.12,675.51 -149.77,974.18 -150.34,425.04 -401.97,791.48 -736.81,1076.5 -214.89,182.9 -456.17,327.09 -713.66,431.75 -446.79,181.6 -934.81,241.75 -1410.09,194.15 -388.76,-38.94 -773.12,-150.28 -1123.84,-331.17 -568.05,-292.98 -1092.12,-753.19 -1352.45,-1373.29 -179.33,-427.15 -212.17,-881.46 -113.19,-1336.07 152.18,-698.85 560.21,-1361.74 1020.89,-1880.98 378.06,-426.11 856.39,-823.86 1357.58,-1082.67l3.52 -22.41c-464.28,-340.67 -925.5,-820.76 -960.89,-1448.84 -7.13,-126.58 3.76,-253.18 30.67,-376.79 154.74,-710.64 785.64,-1233.87 1385.21,-1525.64 271.79,-132.25 569.79,-232.35 864.4,-287.38 362.95,-67.8 770.41,-74.64 1115.28,77.97 147.76,65.39 307.94,205.3 427.65,316.47 170.92,158.73 332.98,332.29 488.39,507.76 144.77,163.47 285.48,331.51 421.89,502.77 103.19,129.54 206.16,262.31 301.34,398.55 79,104.95 170.26,196.88 263.42,287.59 97.89,95.29 194.82,189.55 272.1,304.89 171.19,255.53 192.02,537.92 151.92,839.87 -41.41,311.82 -177.36,595.42 -407.34,799.71 -52.23,46.4 -108.09,88.05 -166.78,124.84 -415.35,260.4 -963.66,273.71 -1431.78,135.89z"/>
   <path class="fil3" d="M4849.12 9155.9c1204.44,621.21 2728.79,330.99 3427.75,-758.77 92.71,-144.56 170.91,-303.19 231.91,-475.64 131.19,-370.92 169.58,-1013.34 113.02,-1686.03 -96.68,-1149.9 -470.78,-2388.26 -1132.97,-2510.04 -281.55,-51.77 -540.02,-74.99 -775.36,-69.62 -505.88,11.54 -1089.63,287.5 -1622.15,713 -58.78,46.97 -116.94,95.76 -174.31,146.22 -357.73,314.69 -684.43,694.24 -937.96,1101.17 -72.73,116.73 -139.45,235.72 -199.14,356.06 -122.82,247.61 -215.93,501.01 -270.69,752.5 -46.34,212.83 -58.71,416.58 -42,610.17 9.7,112.37 29.21,221.32 57.56,326.65 101.26,376.22 315.38,706.2 598.84,980.54 53.21,51.51 108.88,101.05 166.7,148.57 170.05,139.76 358.76,262.02 558.8,365.19z"/>
   <g style="clip-path:url(#id0)">
   </g>
   <g style="clip-path:url(#id1)">
    <image x="7062.48" y="6708.11" width="1726.97" height="1815.36" xlink:href="DONNA COXINHA LOGO COREL_Images\DONNA COXINHA LOGO COREL_ImgID1.png"/>
   </g>
   <g style="clip-path:url(#id2)">
   </g>
   <path class="fil3" d="M7488.84 3725.43c-281.55,-51.78 -540.02,-75 -775.36,-69.63 -1215.47,27.73 -2880.44,1581.92 -3204.26,3068.95 -240.43,1104.15 433.44,1963.62 1339.9,2431.14 1364.22,703.6 3138.85,237.96 3659.66,-1234.41 355.46,-1004.96 29.61,-4003.03 -1019.94,-4196.05zm-8.6 51.34c-251.69,-46.29 -509.96,-74.7 -765.79,-68.86 -386.07,8.81 -783.83,173.78 -1116.82,371.26 -401.91,238.37 -774.52,559.93 -1089.15,914.53 -424.69,478.67 -810.59,1097.5 -951.06,1742.6 -85.25,391.5 -58.35,779.51 96.08,1147.35 232.44,553.66 711.3,964.36 1217.44,1225.41 477.96,246.52 1019.99,353.1 1550.71,305.96 502.29,-44.62 997.49,-228.32 1392.28,-564.35 295.15,-251.22 515.98,-572.58 648.53,-947.3 43.36,-122.57 70.47,-256.17 89.65,-385.13 24.29,-163.26 36.78,-329.52 42.31,-494.55 12.87,-384.18 -11.25,-777.68 -63.01,-1157.89 -63.18,-464.08 -176.3,-973.77 -372.49,-1396.17 -133.83,-288.15 -355.02,-633.32 -678.68,-692.85z"/>
   <path class="fil4" d="M4726.01 7914.6c345.93,515.59 930.8,854.52 1522.34,749.06 581.12,-103.6 1126.57,-430.64 1391.22,-998.5 -1074.2,1188.21 -2045.39,1271.36 -2913.56,249.43z"/>
   <g style="clip-path:url(#id3)">
   </g>
   <g style="clip-path:url(#id4)">
    <image x="3269.92" y="6289.5" width="1726.97" height="1815.36" xlink:href="DONNA COXINHA LOGO COREL_Images\DONNA COXINHA LOGO COREL_ImgID2.png"/>
   </g>
   <g style="clip-path:url(#id5)">
   </g>
   <path class="fil5" d="M3913.09 6511.15c47.6,8.39 78.73,61.53 69.54,118.68 -9.18,57.15 -55.21,96.68 -102.8,88.28 -47.59,-8.39 -78.73,-61.52 -69.54,-118.68 9.18,-57.14 55.21,-96.67 102.8,-88.28z"/>
   <path class="fil5" d="M3752.98 7650.81c47.6,8.4 78.73,61.53 69.54,118.68 -9.18,57.15 -55.2,96.68 -102.8,88.28 -47.6,-8.39 -78.73,-61.52 -69.54,-118.67 9.18,-57.15 55.21,-96.68 102.8,-88.29z"/>
   <path class="fil5" d="M4149.1 8234.34c47.59,8.4 78.73,61.53 69.54,118.68 -9.19,57.15 -55.21,96.68 -102.8,88.28 -47.6,-8.39 -78.73,-61.52 -69.54,-118.68 9.18,-57.14 55.21,-96.68 102.8,-88.28z"/>
   <path class="fil5" d="M4110.04 7871.45c47.59,8.39 78.73,61.53 69.54,118.68 -9.19,57.15 -55.21,96.68 -102.8,88.28 -47.6,-8.39 -78.73,-61.52 -69.54,-118.67 9.18,-57.15 55.2,-96.68 102.8,-88.29z"/>
   <path class="fil5" d="M8438.16 6932.65c40.35,27.83 48.6,89.71 18.44,138.22 -30.16,48.51 -87.33,65.28 -127.69,37.45 -40.36,-27.83 -48.61,-89.71 -18.45,-138.22 30.16,-48.51 87.33,-65.28 127.69,-37.45z"/>
   <path class="fil0" d="M16018.23 9801.29l197.67 -1239.14c19.73,-123.67 122.66,-212.08 246.52,-211.74l775.08 2.21c76.81,0.22 143.2,31.54 193.27,91.17 50.07,59.63 69.86,130.96 57.62,207.68l-141.7 888.26c126.63,-36.77 257.61,-57.7 395.75,-57.3 334.32,0.96 658.05,114.86 880.15,379.06 1.04,1.24 1.93,2.32 2.96,3.58 11.05,13.64 21.64,27.43 31.76,41.38 389.59,-246.05 848.86,-418.99 1312.59,-417.67 362.63,1.03 762.7,97.72 1002.27,398.35 224.54,269.43 241.1,604.14 188.13,936.19l-121.85 763.88 106.19 25.3c130.24,31.01 214.99,158.77 193.74,292.03l-65.04 407.73c-13.92,87.31 -65.96,155.37 -145.78,190.64 -175.9,77.75 -437.4,141.97 -629.83,141.43 -196.58,-0.57 -354.83,-67.53 -494.08,-182.34l-3.65 1.8c-246.61,120.77 -514.02,204.15 -791.24,203.36 -238.81,-0.68 -471.54,-60.46 -659.99,-182.3 -41.31,83.25 -125.65,137.68 -222.88,137.4l-775.09 -2.21c-76.82,-0.23 -143.2,-31.54 -193.27,-91.17 -50.06,-59.63 -69.86,-130.97 -57.61,-207.68l250.03 -1567.35c1.26,-7.9 2.91,-19.98 3.89,-32.32 -41.08,-7.29 -97.82,-8.87 -123.66,-8.94l-10.61 -0.03c-80.19,-0.24 -177.06,6.93 -263.94,24.85l-266.13 1668.31c-19.73,123.67 -122.67,212.08 -246.52,211.74l-775.08 -2.21c-17.22,-0.05 -33.91,-1.66 -50.02,-4.81 -15.72,3.03 -31.97,4.57 -48.6,4.53l-775.09 -2.21c-76.81,-0.22 -143.2,-31.53 -193.27,-91.16 -50.06,-59.63 -69.86,-130.97 -57.61,-207.69l250.03 -1567.36c1.26,-7.89 2.92,-19.97 3.89,-32.3 -41.07,-7.3 -97.82,-8.87 -123.66,-8.94l-10.61 -0.03c-80.19,-0.23 -177.06,6.93 -263.94,24.84l-266.13 1668.31c-19.73,123.67 -122.67,212.09 -246.52,211.74l-775.08 -2.21c-23.97,-0.07 -46.94,-3.17 -68.71,-9.22 -21.35,5.83 -43.85,8.89 -67.08,8.82l-1420.51 -4.04c-140.22,-0.4 -236.51,-51.24 -318.33,-165.55 -5.77,-8.08 -10.33,-15.22 -15.2,-23.87l-261.94 -465.85 -426.14 505.38c-3.08,3.66 -5.8,6.7 -9.07,10.19 -93.13,98.95 -175.53,136.27 -312.45,135.88l-769.79 -2.19c-76.68,-0.22 -145.27,-32.95 -192.47,-89.41 -210.77,84.49 -441.23,130.01 -682.71,129.29l-10.62 -0.03c-451.42,-1.35 -821.62,-164.69 -1066.75,-439.06 -371.17,263.04 -824.35,433.68 -1277.48,432.39 -963.4,-2.75 -1487.59,-703.52 -1337,-1647.51 135.95,-852.26 866.42,-1534.36 1731.82,-1531.9 448.48,1.29 853.04,185.43 1091.51,529.59 335.99,-334.27 796.19,-524.29 1279.31,-522.83l10.62 0.03c258.92,0.78 491.13,54.84 688.35,152.59 46.72,-69 120.25,-107.91 205.12,-107.67l822.87 2.34c163.19,0.47 259.59,47.46 342.71,193.72 0.77,1.37 1.42,2.53 2.17,3.91l210.54 385.77 374.8 -428.2c92.04,-113.15 182.98,-152.04 327.99,-151.62l490.05 1.39c-29.64,-50.88 -40.05,-108.28 -30.35,-169.06l118.26 -741.31c19.73,-123.67 122.67,-212.09 246.52,-211.74l594.59 1.69c286.45,0.81 451.89,170.79 405.2,463.51l-92.07 577.17c-4.8,30.08 -14.52,58.07 -28.26,83.21l446.93 1.27c88.51,0.26 167.05,45.38 212.73,116.85 207.95,-96.99 423.53,-157.43 659.38,-156.75 311.07,0.9 613,99.56 832.4,326.14zm-8654.94 1433.15c1.21,-39.67 3.8,-79.89 7.81,-120.62 -86.2,17.66 -175.12,-11.61 -237.03,-81.22l-193.65 -217.75c-1.67,-1.88 -3.08,-3.51 -4.71,-5.44 -35.85,-42.64 -119.19,-142.43 -174.41,-161.22 -22.24,-7.57 -51.06,-8.51 -74.14,-8.57 -201.97,-0.58 -295.83,258.18 -322.02,422.35 -12.13,76.05 -33.53,262.64 27.91,327.17 44.28,46.5 155.31,53.3 213,53.46 156.33,0.45 340.46,-56.03 485.28,-109.96 0.82,-0.3 1.52,-0.56 2.34,-0.85l269.61 -97.33zm1513.33 177.54c267.94,0.8 358.13,-149.53 399.08,-406.22 9.62,-60.3 29.59,-231.67 -23.33,-282.01 -36.33,-34.57 -128.3,-40.1 -173.8,-40.24l-10.62 -0.03c-267.95,-0.8 -358.13,149.55 -399.07,406.25 -9.62,60.3 -29.59,231.65 23.32,281.99 36.33,34.57 128.3,40.1 173.8,40.24l10.62 0.03zm3420.8 -32.48l104.92 -657.78 -296.54 334.73 191.62 323.04z"/>
   <path class="fil1" d="M7708.29 11859.95l-178.31 -413.7 -349.42 126.14c-225.86,84.12 -418.43,125.95 -572.38,125.51 -398.16,-1.13 -566.11,-213.51 -491.77,-679.47 67.57,-423.6 313.71,-634.79 568.53,-634.07 175.18,0.51 267.6,53.74 441.7,260.83l193.64 217.75 543.18 -242.14c-43.78,-524.57 -433.36,-912.4 -1054.49,-914.16 -663.6,-1.89 -1356.03,509.99 -1485.26,1320.12 -129.24,810.14 300.4,1346.4 1086.09,1348.64 499.03,1.43 972.35,-235.62 1298.48,-515.45zm1170.38 -192.67l-10.62 -0.03c-339.76,-0.97 -518.93,-176.3 -447.97,-621.08 70.95,-444.78 305.86,-618.92 645.62,-617.96l10.62 0.03c339.76,0.96 518.92,176.29 447.98,621.07 -70.95,444.78 -305.88,618.93 -645.64,617.96zm-124.64 714.8l10.62 0.03c721.99,2.06 1411.89,-493.94 1545.34,-1330.55 133.46,-836.61 -397.64,-1336.08 -1119.63,-1338.14l-10.62 -0.03c-721.98,-2.06 -1411.89,493.94 -1545.35,1330.55 -133.45,836.61 397.65,1336.08 1119.64,1338.14zm2998.63 -33.85l828.17 2.37 -786.88 -1326.6 1114.13 -1257.62 -743.22 -2.11c-69.01,-0.19 -91.09,5.03 -137.54,63.17l-610.52 697.53 -5.3 -0.01 -382.22 -700.36c-33.18,-58.37 -42.96,-63.69 -122.59,-63.91l-822.85 -2.34 733.3 1262.87 -1177.35 1321 769.76 2.2c69.01,0.19 86.62,-10.36 131.4,-57.9l655.04 -776.86 5.3 0.02 438.56 779.96c30.41,42.47 49.1,58.42 112.81,58.59zm1057.6 -2582.13l-412.2 2583.96 775.08 2.21 412.2 -2583.96 -775.08 -2.21zm179.08 -1122.55l-118.26 741.3 775.08 2.21 92.07 -577.15c19.43,-121.78 -10.98,-164.26 -154.31,-164.66l-594.58 -1.7zm1326.35 1126.83l-594.57 -1.7 -412.19 2583.97 775.07 2.21 279.58 -1752.66c6.76,-42.36 10.99,-68.83 62.15,-89.87 106.77,-36.78 270.26,-62.8 434.83,-62.33l10.61 0.03c175.19,0.5 286.91,32.59 335.17,96.31 40.19,47.79 53.21,132.58 35.48,243.78l-250.02 1567.32 775.07 2.21 253.4 -1588.51c54.06,-338.88 -3.49,-577.43 -145.5,-752.65 -156.24,-185.86 -395.01,-287.19 -686.99,-288.02 -233.58,-0.67 -447.15,72.89 -673.61,194.09l-145.39 79.05 -53.09 -233.24zm2708.34 187.82l215.39 -1350.23 -775.08 -2.2 -598.87 3754.16 775.08 2.21 279.58 -1752.65c6.76,-42.37 10.98,-68.83 62.13,-89.88 106.78,-36.78 270.26,-62.8 434.83,-62.33l10.62 0.03c175.19,0.5 286.91,32.6 335.17,96.31 40.18,47.79 53.21,132.59 35.47,243.78l-250.02 1567.32 775.08 2.21 253.39 -1588.5c54.06,-338.88 -3.49,-577.42 -145.49,-752.64 -156.24,-185.86 -395.01,-287.2 -687,-288.03 -233.59,-0.67 -447.14,72.9 -673.61,194.09l-46.69 26.35zm3117.22 787.6l-30.41 190.62c-204.99,-80.05 -478.75,-128.51 -707.02,-129.16 -509.64,-1.46 -936.03,241.02 -1015.43,738.74 -78.55,492.43 249.86,864.19 817.89,865.81 212.36,0.6 439.3,-57.02 681.69,-178.18l161.32 -78.99c130.31,148.69 260.13,233.82 445.93,234.35 153.95,0.43 386.21,-57.17 529.07,-120.33l65.04 -407.72 -337.7 -80.42 159.64 -1000.76c54.9,-344.17 5.43,-566.8 -132.96,-731.41 -163.48,-207.07 -461.49,-303.27 -806.55,-304.25 -424.7,-1.21 -860.5,167.07 -1234.65,414.98l156.24 418.95 322.26 -89.14c211.02,-57.67 396.59,-88.92 555.85,-88.48 148.64,0.42 276.3,32.58 334.33,101.61 40.18,47.79 53.2,132.59 35.47,243.78zm-103.9 651.28l-38.01 238.28c-5.91,37.07 -26.06,63.5 -55.14,79.31 -131.39,57.9 -329.26,99.72 -483.22,99.28 -249.51,-0.71 -368.95,-117.59 -339.39,-302.92 8.44,-52.95 25.82,-95.28 51.27,-121.69 30.77,-26.4 75.78,-42.17 139.48,-41.98l684.83 1.95c31.85,0.08 45.25,16.01 40.18,47.78z"/>
   <path class="fil6" d="M5387.81 13095.33l-559.29 0.95 -74.97 494.42 517.38 -0.88 -22.85 150.74 -517.38 0.88 -95.97 632.91 -167.69 0.29 216.75 -1429.51 726.98 -1.23 -22.96 151.42zm787.79 1276.42l-163.94 0.28 24.19 -159.59 -3.75 0c-89.8,122.62 -204.02,183.71 -342.4,183.94 -101.9,0.18 -177.57,-26.58 -227.03,-80.25 -49.45,-53.66 -67.24,-125.07 -53.72,-214.22 28.89,-190.55 158.23,-302.01 387.87,-333.37l312.9 -43.39c26.32,-173.54 -30.74,-260.19 -171.15,-259.95 -123.05,0.21 -240.5,42.25 -352.38,126.13l25.39 -167.42c110.25,-64.15 230.59,-95.97 361.8,-96.2 240.29,-0.41 341.35,126.31 302.86,380.15l-100.66 663.88zm-85.61 -516.26l-251.58 34.44c-77.6,10.68 -137.7,29.49 -180.34,56.77 -42.58,26.95 -69.24,74.63 -79.61,143.03 -7.53,49.67 4,90.48 34.99,122.07 30.64,31.58 75.65,47.16 134.95,47.06 81.12,-0.13 152.6,-28.84 213.99,-85.42 61.78,-56.92 98.97,-129.1 112.17,-216.2l15.43 -101.75zm337.93 479.1l26.63 -175.58c79,65.53 172.49,98.36 279.51,98.18 143.83,-0.24 223.03,-48.34 237.52,-143.95 4.12,-27.23 1.5,-50.36 -7.93,-69.05 -9.73,-19.04 -23.55,-35.68 -42.47,-50.27 -18.57,-14.6 -41.43,-27.83 -67.97,-39.36 -26.53,-11.51 -55,-23.72 -85.81,-36.25 -42.61,-17.96 -79.4,-35.92 -111.04,-54.24 -31.35,-17.99 -56.83,-38.7 -76.55,-61.45 -19.32,-23.1 -32.79,-48.94 -39.94,-78.17 -7.15,-29.25 -7.74,-63.6 -1.8,-102.73 7.28,-47.98 24.58,-90.19 52.02,-127.32 27.73,-36.8 61.73,-67.81 101.98,-92.7 40.57,-24.91 85.04,-44.03 133.98,-56.71 48.6,-12.66 98.26,-18.87 148.03,-18.95 88.61,-0.15 165.37,15.03 230.64,45.19l-25.13 165.72c-67.49,-49.21 -150.36,-73.57 -248.17,-73.4 -30.67,0.05 -58.8,3.49 -84.76,10.69 -25.57,6.85 -48.2,16.76 -67.83,29.36 -19.28,12.63 -35.25,27.96 -47.76,45.34 -12.23,17.71 -19.94,37.11 -23.2,58.55 -4.02,26.53 -2.6,48.64 4.21,66.66 7.14,18.02 18.7,34 35.33,47.92 16.29,13.91 37.22,26.47 62.09,37.66 24.89,11.18 53.37,23.38 85.44,36.59 42.36,17.28 80.57,34.9 113.57,53.22 33.01,18.31 60.58,38.68 82.64,61.77 21.76,22.75 37.16,49.27 46.26,79.19 9.08,29.92 10.54,65.31 4.29,106.48 -7.68,50.69 -25.59,94.61 -53.37,131.74 -28.12,37.13 -62.47,68.14 -103.33,92.71 -41.26,24.9 -86.94,43.01 -137.19,55.34 -50.55,11.99 -102.2,17.87 -155.72,17.95 -104.97,0.18 -193.27,-19.75 -264.16,-60.11zm1399.79 24.51c-41.7,21.16 -94.43,31.8 -157.48,31.91 -179.28,0.3 -253.45,-99.25 -223.22,-298.64l91.59 -603.99 -175.87 0.29 21.16 -139.52 175.86 -0.29 37.77 -249.08 171.64 -53.36 -45.82 302.17 257.66 -0.44 -21.16 139.52 -257.66 0.44 -87.25 575.4c-10.37,68.39 -6.17,117.04 12.91,146.26 18.75,29.22 55.04,43.79 109.23,43.7 41.24,-0.07 78.4,-11.36 111.84,-34.21l-21.21 139.85zm1490.16 -1360.21c-29.36,-17.64 -64.09,-26.77 -104.99,-26.7 -114.18,0.19 -182.37,72.43 -204.24,216.7l-23.89 157.55 239.6 -0.4 -21.16 139.52 -239.59 0.4 -133.64 881.32 -162.91 0.27 133.63 -881.32 -174.85 0.3 21.16 -139.52 174.84 -0.3 25.08 -165.36c16.25,-107.19 60.05,-191.63 131.19,-254.01 71.47,-62.37 153.54,-93.47 245.89,-93.63 50.1,-0.08 88.72,5.97 116.21,17.83l-22.34 147.34zm350.99 1390.78c-150.98,0.26 -264.41,-47.18 -340.28,-142.31 -75.54,-95.12 -101.67,-221.63 -77.78,-379.18 26,-171.5 93.32,-305.3 201.7,-402.1 108.67,-96.46 242.74,-144.65 402.58,-144.92 152.36,-0.26 264.23,46.15 335.54,139.93 71.36,93.43 94.25,223.35 69.07,389.4 -24.72,162.99 -90.49,293.4 -197.37,391.55 -107.23,98.16 -238.38,147.37 -393.46,147.63zm153.11 -931.02c-104.97,0.17 -193.56,36.04 -265.74,107.61 -72.18,71.56 -117.77,169.96 -136.86,295.85 -18.32,120.8 -1.75,216.03 49.71,285.67 51.45,69.66 128.96,104.56 232.57,104.39 106,-0.18 192.67,-34.69 259.96,-103.18 67.29,-68.49 110.33,-165.86 129.47,-292.1 19.35,-127.6 5.97,-225.89 -40.47,-294.88 -46.39,-69.31 -122.64,-103.55 -228.63,-103.37zm1045.25 928.99c-150.99,0.25 -264.41,-47.18 -340.28,-142.31 -75.54,-95.12 -101.67,-221.63 -77.78,-379.18 26,-171.5 93.32,-305.31 201.69,-402.1 108.67,-96.46 242.74,-144.65 402.59,-144.93 152.35,-0.25 264.23,46.16 335.53,139.94 71.36,93.43 94.26,223.35 69.08,389.4 -24.72,163 -90.49,293.4 -197.37,391.56 -107.23,98.15 -238.38,147.36 -393.46,147.63zm153.1 -931.02c-104.97,0.18 -193.55,36.04 -265.74,107.61 -72.18,71.56 -117.77,169.96 -136.86,295.85 -18.31,120.8 -1.75,216.03 49.71,285.67 51.45,69.65 128.96,104.56 232.57,104.39 106,-0.18 192.67,-34.69 259.96,-103.18 67.29,-68.49 110.33,-165.86 129.47,-292.1 19.35,-127.6 5.97,-225.89 -40.47,-294.88 -46.39,-69.33 -122.63,-103.55 -228.63,-103.37zm1494.32 904.42l-163.94 0.28 26.31 -173.54 -3.74 0c-95.97,131.81 -223.18,197.69 -381.66,197.96 -128.15,0.22 -224.17,-45.21 -286.98,-136.61 -63.19,-91.07 -82.83,-215.55 -58.94,-373.09 25.59,-168.77 88.69,-303.94 189.32,-405.82 100.63,-101.89 221.82,-152.78 363.6,-153.02 140.42,-0.24 234.31,54.71 281.67,164.86l3.75 -0 95.81 -631.9 163.94 -0.28 -229.13 1511.17zm-93.97 -461.14l22.85 -150.75c12.49,-82.34 -4.2,-152.06 -50.05,-209.13 -45.87,-57.07 -110.72,-85.54 -194.57,-85.4 -99.85,0.16 -184.11,36.71 -252.46,109.97 -68.35,73.26 -112.3,174.36 -131.86,303.33 -17.85,117.74 -4.28,210.25 40.22,278.55 44.56,67.97 113.35,101.87 205.71,101.71 91.34,-0.15 170.31,-33.28 237.19,-99.06 66.87,-65.76 107.8,-149.18 122.97,-249.22zm1878.52 -11.34l-721.87 1.22c-14.51,113.64 2.86,201.38 52.09,263.21 49.28,61.5 125.02,92.33 227.61,92.16 115.21,-0.19 226.58,-38.15 334.88,-114.2l-23.27 153.47c-99.88,65.49 -223.73,98.02 -371.31,98.27 -144.51,0.24 -250.99,-45.84 -319.44,-138.26 -68.74,-92.75 -90.22,-223.01 -64.73,-391.11 24.09,-158.91 89.02,-288.29 194.18,-388.49 105.49,-100.18 225.2,-150.39 358.81,-150.62 133.95,-0.22 230.66,42.81 290.83,129.12 60.23,85.97 78.48,206.02 55.21,359.48l-13 85.76zm-146.68 -138.21c13.6,-94.25 1.91,-167.71 -34.74,-220.39 -37.05,-52.32 -95.45,-78.42 -175.54,-78.28 -77.02,0.13 -146.99,27.8 -209.19,83.02 -62.21,55.21 -106.55,127.41 -132.68,216.59l552.15 -0.94zm1596.44 -762.34c-29.36,-17.64 -64.1,-26.76 -104.99,-26.7 -114.17,0.19 -182.37,72.44 -204.24,216.71l-23.89 157.55 239.6 -0.41 -21.15 139.52 -239.6 0.41 -133.63 881.31 -162.92 0.27 133.64 -881.31 -174.85 0.29 21.16 -139.52 174.85 -0.29 25.07 -165.37c16.25,-107.19 60.06,-191.62 131.19,-254.01 71.48,-62.38 153.54,-93.47 245.9,-93.63 50.1,-0.08 88.71,5.97 116.22,17.84l-22.34 147.34zm820.15 896.72l-721.88 1.22c-14.5,113.64 2.86,201.39 52.09,263.22 49.29,61.5 125.02,92.32 227.61,92.15 115.2,-0.19 226.59,-38.15 334.89,-114.19l-23.28 153.46c-99.88,65.49 -223.73,98.02 -371.3,98.27 -144.51,0.25 -250.99,-45.84 -319.44,-138.26 -68.73,-92.75 -90.22,-223.01 -64.73,-391.11 24.09,-158.91 89.03,-288.29 194.18,-388.48 105.49,-100.19 225.2,-150.4 358.8,-150.63 133.95,-0.23 230.67,42.81 290.84,129.12 60.23,85.97 78.48,206.03 55.22,359.48l-13 85.76zm-146.69 -138.2c13.61,-94.26 1.92,-167.72 -34.74,-220.39 -37.04,-52.33 -95.44,-78.43 -175.53,-78.29 -77.03,0.13 -146.98,27.8 -209.19,83.02 -62.21,55.21 -106.55,127.41 -132.69,216.59l552.15 -0.93zm267.14 570.73l26.62 -175.58c79,65.53 172.5,98.36 279.51,98.18 143.84,-0.24 223.02,-48.34 237.52,-143.95 4.13,-27.23 1.5,-50.36 -7.93,-69.05 -9.73,-19.04 -23.55,-35.69 -42.47,-50.28 -18.57,-14.6 -41.43,-27.82 -67.97,-39.36 -26.54,-11.51 -55.01,-23.72 -85.81,-36.25 -42.6,-17.95 -79.4,-35.92 -111.04,-54.24 -31.35,-17.98 -56.83,-38.69 -76.55,-61.45 -19.32,-23.1 -32.79,-48.93 -39.94,-78.17 -7.15,-29.25 -7.73,-63.6 -1.8,-102.73 7.27,-47.98 24.57,-90.2 52.02,-127.32 27.73,-36.8 61.73,-67.81 101.97,-92.7 40.57,-24.91 85.05,-44.03 133.98,-56.71 48.61,-12.66 98.27,-18.87 148.03,-18.96 88.62,-0.15 165.37,15.03 230.64,45.2l-25.13 165.71c-67.49,-49.22 -150.36,-73.56 -248.17,-73.4 -30.68,0.05 -58.8,3.5 -84.77,10.69 -25.56,6.85 -48.2,16.76 -67.82,29.37 -19.29,12.63 -35.25,27.96 -47.76,45.34 -12.24,17.71 -19.95,37.11 -23.19,58.54 -4.03,26.54 -2.61,48.65 4.21,66.67 7.14,18.02 18.69,33.99 35.32,47.91 16.29,13.91 37.22,26.47 62.1,37.66 24.89,11.18 53.36,23.38 85.43,36.59 42.36,17.28 80.57,34.9 113.57,53.22 33,18.31 60.58,38.68 82.63,61.77 21.76,22.76 37.16,49.27 46.26,79.19 9.08,29.93 10.54,65.31 4.3,106.48 -7.69,50.69 -25.59,94.61 -53.37,131.74 -28.12,37.13 -62.46,68.14 -103.33,92.71 -41.25,24.9 -86.94,43.01 -137.18,55.34 -50.55,12 -102.21,17.87 -155.73,17.95 -104.97,0.18 -193.27,-19.75 -264.16,-60.11zm1399.8 24.5c-41.71,21.16 -94.43,31.8 -157.49,31.91 -179.27,0.3 -253.45,-99.25 -223.22,-298.64l91.59 -603.99 -175.86 0.29 21.15 -139.52 175.87 -0.29 37.77 -249.08 171.64 -53.36 -45.82 302.16 257.67 -0.44 -21.16 139.52 -257.66 0.44 -87.25 575.41c-10.37,68.39 -6.16,117.04 12.91,146.26 18.75,29.22 55.04,43.79 109.24,43.7 41.24,-0.07 78.39,-11.37 111.83,-34.21l-21.2 139.85zm949.07 8.27l-163.94 0.28 24.2 -159.59 -3.75 0.01c-89.8,122.62 -204.01,183.71 -342.4,183.94 -101.9,0.18 -177.58,-26.58 -227.03,-80.24 -49.45,-53.66 -67.23,-125.07 -53.72,-214.22 28.9,-190.56 158.24,-302.01 387.88,-333.36l312.9 -43.39c26.32,-173.54 -30.74,-260.19 -171.15,-259.96 -123.05,0.21 -240.5,42.24 -352.38,126.12l25.39 -167.41c110.25,-64.14 230.59,-95.98 361.8,-96.2 240.28,-0.4 341.35,126.32 302.86,380.16l-100.66 663.88zm-85.62 -516.27l-251.58 34.45c-77.61,10.67 -137.71,29.48 -180.34,56.77 -42.58,26.95 -69.25,74.63 -79.62,143.02 -7.53,49.68 4,90.49 35,122.07 30.64,31.58 75.65,47.16 134.95,47.05 81.12,-0.13 152.6,-28.84 213.98,-85.41 61.79,-56.92 98.97,-129.11 112.18,-216.2l15.43 -101.75zm337.94 479.09l26.62 -175.58c79,65.53 172.5,98.37 279.51,98.19 143.83,-0.24 223.02,-48.34 237.51,-143.96 4.14,-27.23 1.5,-50.35 -7.92,-69.04 -9.72,-19.04 -23.55,-35.69 -42.47,-50.28 -18.57,-14.6 -41.44,-27.83 -67.97,-39.36 -26.53,-11.51 -55.01,-23.72 -85.82,-36.25 -42.6,-17.96 -79.4,-35.92 -111.03,-54.24 -31.35,-17.98 -56.84,-38.69 -76.55,-61.45 -19.32,-23.1 -32.79,-48.94 -39.94,-78.17 -7.15,-29.25 -7.74,-63.6 -1.81,-102.74 7.28,-47.98 24.58,-90.19 52.02,-127.31 27.73,-36.8 61.73,-67.81 101.96,-92.7 40.58,-24.91 85.05,-44.04 133.98,-56.71 48.61,-12.66 98.27,-18.87 148.04,-18.96 88.61,-0.15 165.36,15.03 230.63,45.19l-25.12 165.71c-67.5,-49.21 -150.36,-73.56 -248.17,-73.39 -30.67,0.05 -58.8,3.5 -84.76,10.69 -25.57,6.85 -48.2,16.76 -67.83,29.37 -19.28,12.63 -35.24,27.96 -47.75,45.34 -12.23,17.71 -19.94,37.11 -23.2,58.54 -4.02,26.54 -2.61,48.65 4.21,66.67 7.14,18.01 18.7,33.98 35.33,47.91 16.29,13.92 37.21,26.48 62.09,37.66 24.89,11.19 53.37,23.39 85.43,36.6 42.36,17.28 80.58,34.9 113.57,53.22 33.01,18.31 60.58,38.67 82.64,61.77 21.76,22.76 37.16,49.27 46.25,79.19 9.09,29.92 10.55,65.3 4.3,106.48 -7.69,50.7 -25.59,94.61 -53.37,131.74 -28.13,37.13 -62.47,68.14 -103.33,92.71 -41.26,24.9 -86.94,43.01 -137.19,55.34 -50.55,11.99 -102.21,17.87 -155.72,17.95 -104.97,0.18 -193.27,-19.75 -264.16,-60.12zm1349.55 -1394.67l-174.75 1026.65 -134.98 0.23 137.95 -1026.59 171.78 -0.29zm-303.34 1447.69c-30.67,0.05 -55.26,-10.79 -73.55,-31.86 -18.56,-21.4 -25.54,-47.24 -20.89,-77.87 4.59,-30.28 19.47,-56.5 44.58,-78.32 24.73,-21.47 52.63,-32.41 83.29,-32.46 29.66,-0.05 54.25,10.79 72.81,32.19 18.85,21.74 25.79,47.92 21.2,78.21 -4.65,30.63 -19.47,56.52 -44.88,77.98 -25.01,21.13 -52.91,32.07 -82.56,32.12z"/>
   <path class="fil7" d="M6491.36 1950.07c592.95,713.88 1369.69,873.71 2233.64,685.99 17.61,-3.81 34.9,7.87 38.94,26.31 4.03,18.46 -6.65,36.99 -24.05,41.75 -902.09,246.47 -1746,138.02 -2300.8,-711.14 -9.97,-15.26 -6.9,-36.02 6.98,-47.42 13.89,-11.39 33.73,-9.42 45.3,4.51zm219.67 1572.96c267.75,-6.11 536.31,23.12 799.73,71.56 177.3,32.6 355.04,87.32 479.84,231.95 34.25,39.71 62.86,83.7 88.11,129.9 62.19,-250.04 160.16,-491.2 275.98,-718.49 -73.65,-92.83 -160.62,-228.81 -130.28,-351.58 3.63,-14.65 15.08,-24.83 29.39,-26.08 14.31,-1.27 27.17,6.76 32.99,20.57 106.33,252.29 334.36,401.48 571.5,494.29 12.84,5.02 21.07,17.05 21.53,31.5 0.47,14.43 -6.97,27.06 -19.45,33.05 -81.2,38.96 -319.72,-75.9 -418.42,-124.47 -84.3,108.5 -197.39,493.58 -239.55,641.07 154.35,77 321.23,130.39 489.39,160.31 637.47,113.42 1362.92,-106.41 1464.9,-874.44 93.64,-705.18 -282.81,-750.92 -634.76,-1221.03 -0.25,-0.33 -0.45,-0.61 -0.69,-0.95 -261.51,-375.21 -1151.03,-1468.46 -1529.56,-1635.96 -248.07,-109.77 -550.45,-116.42 -814.39,-83.82 -324.46,40.08 -652.16,144.96 -948.52,289.17 -517.72,251.92 -1100.91,713.32 -1235.46,1331.24 -21.21,97.44 -29.95,196.8 -24.32,296.58 30.7,545.01 481.93,973.06 886.02,1262.29 37.9,-299.2 76.08,-598.35 114.12,-897.52 -111.4,-2.05 -234.08,-24.15 -318.2,-102.93 -11.93,-11.16 -14.64,-29.25 -6.53,-43.79 8.1,-14.54 24.41,-20.88 39.5,-15.36 222.24,81.31 627.99,-79.07 832.83,-167.74 10.88,-4.72 22.35,-3.31 31.9,3.91 9.54,7.21 14.47,18.2 13.73,30.58 -10.19,167.45 -318.37,265.26 -457.05,305.7l-174.85 1113.15c247.83,-104.15 513.91,-176.57 780.58,-182.64z"/>
   <path class="fil6" d="M16763.44 7781.35l-339.15 -82.16c24.25,-11.43 64.95,-32.54 96.54,-48.48l274.34 -143.6c9.94,-5.08 11.41,-9.33 13.14,-20.59l14.25 -93.66 -532.97 -128.08 -18.87 124 339.14 82.15 -94.9 48.67 -275.15 143.5c-9.94,5.08 -12.1,8.37 -14.08,21.38l-14.25 93.64 532.96 128.08 19.01 -124.86zm-307.05 -654.33l-19.01 124.86 214.6 51.73c22.55,5.13 38.68,8.66 54.26,10.36 77.86,8.54 140.69,-37.45 153.62,-122.45 4.75,-31.21 1.04,-61.59 -12.53,-98.34l-11.63 -33.01 38.33 -5.5 14.52 -95.38 -392.31 -94.15 -19.01 124.86 264.5 63.38c7.24,1.67 9.57,2.82 11.39,12.71 3.93,18.07 5.98,42.97 2.27,67.26 -5.67,37.28 -18.55,56.14 -47.23,52.99 -6.55,-0.72 -20.23,-3.98 -27.47,-5.65l-224.3 -53.69zm-43.16 -28.54l-63.65 -211.5 -73.96 31.56c-17.02,7.84 -15.74,15.91 -8.71,29.91l92.26 176.72 54.06 -26.68zm136.21 -396.81l-205.04 -48.93 -18.87 124 566.17 134.37 19.6 -90.42 -35.35 -25.03 14.24 -16.94c24.56,-29.92 42.12,-63.27 47.4,-97.96 16.24,-106.65 -73.85,-209.98 -200.9,-223.9 -104.91,-11.51 -192.25,47.68 -204.53,128.33 -4.61,30.36 0.61,61.78 9.49,90.96l7.79 25.53zm240.31 58.1l-137.25 -34.44c-9.42,-3.68 -13.27,-5.87 -15.91,-15.86 -5.98,-20.92 -8.15,-44.97 -4.58,-68.38 7.25,-47.69 39.65,-63.53 88.84,-58.14 72.94,8 117.37,44.6 108,106.17 -3.04,19.94 -11.91,45.42 -20.97,61.18 -5.68,9.96 -9.22,11.33 -18.11,9.48zm-220.79 -372.47l392.31 94.14 19.01 -124.86 -392.31 -94.14 -19.01 124.86zm-170.46 -40.74l112.49 27.34 19 -124.87 -87.62 -21.08c-18.46,-4.66 -26.06,1.56 -29.36,23.24l-14.52 95.37zm579.53 -495.42l-23.99 59.09 -295.95 -70.35 -20.41 90.32 32.9 24.77 -14.12 16.09c-24.29,28.18 -38.77,52.15 -43.92,85.98 -16.36,107.53 72.56,218.65 200.42,232.67 104.9,11.5 191.15,-46.03 204.49,-133.62 5.14,-33.82 -3.64,-69.16 -17.34,-105.04l-9 -23.04c27.65,-11.95 47.02,-40.69 52.3,-75.37 3.82,-25.13 1.46,-58.91 -6.74,-87.13l-58.64 -14.37zm-221.4 140.59l140.67 33.94c7.24,1.67 8.62,3.6 13.17,12.02 6.5,17.46 10.34,46.99 7.18,67.8 -6.73,44.21 -39.66,63.53 -88.85,58.13 -75.39,-8.26 -116.99,-52.49 -107.89,-112.32 3.3,-21.68 10.31,-40.31 19.92,-54.24 4.33,-6.57 8.56,-7 15.79,-5.32z"/>
   <path class="fil8" d="M6101.25 9036.88c218.6,-48.25 342.82,-229.93 408.06,-435.8 -85.6,26.03 -172.87,46.87 -260.97,62.57 -382.55,68.2 -762.31,-49.45 -1076.46,-280.55 39.89,202.9 233.97,403.71 381.03,506.02 155.51,108.2 359.89,189.34 548.34,147.75z"/>
   <path class="fil8" d="M5165.16 8330.92c430.68,313.34 884.84,374.89 1362.46,184.64 -175.48,-347.19 -386.42,-367.21 -646.76,-81.92 -8.74,9.58 -19.54,14.52 -32.15,14.69 -12.6,0.16 -23.49,-4.49 -32.43,-13.84 -195.15,-204.24 -411.1,-229.37 -651.38,-108.33 0.07,1.59 0.16,3.17 0.25,4.75z"/>
   <path class="fil9" d="M5464.52 5005.84c417.66,73.64 688.49,554.96 604.91,1075.05 -48.81,303.71 -207.71,553.43 -414.62,694.03 -272.19,-301.66 -620.53,-431.23 -1045.05,-388.65 -63.81,-169.86 -85.61,-367.98 -52.81,-572.07 83.58,-520.09 489.92,-882 907.58,-808.36z"/>
   <path class="fil10" d="M5456.76 5054.15c396.24,69.87 653.17,526.5 573.87,1019.91 -47.36,294.73 -204,535.87 -406.89,667.43 -257.93,-267.92 -581.49,-387.52 -970.63,-358.94 -66.12,-165.23 -89.71,-360.3 -57.38,-561.5 79.3,-493.41 464.79,-836.76 861.03,-766.89z"/>
   <path class="fil3" d="M5410.81 5296.62c341.09,60.14 570.74,400.44 512.94,760.08 -43.37,269.9 -236.32,473.98 -474.07,533.6 -179.97,-128.82 -385.94,-198.87 -617.88,-210.24 -117.54,-143.55 -175.67,-339.3 -143.23,-541.16 57.79,-359.63 381.15,-602.42 722.24,-542.28z"/>
   <path class="fil11" d="M5401.77 5352.85c311.63,54.95 521.46,365.87 468.65,694.45 -42.92,267.06 -246.12,463.6 -488.02,498.33 -141.66,-87 -298.35,-140.03 -470.04,-159.16 -133.54,-133.39 -203.55,-332.3 -170.47,-538.16 52.81,-328.58 348.25,-550.41 659.88,-495.46zm-184.33 1191.03c-2.3,-0.38 -4.6,-0.72 -6.9,-1.12 -68.72,-12.12 -132.49,-36.7 -189.58,-71.16 67.08,19.15 132.58,43.23 196.48,72.28z"/>
   <path class="fil4" d="M5366.03 5575.19c195.17,34.41 326.58,229.14 293.51,434.92 -33.07,205.79 -218.09,344.71 -413.27,310.3 -195.17,-34.41 -326.58,-229.13 -293.51,-434.92 33.07,-205.79 218.1,-344.71 413.27,-310.3z"/>
   <path class="fil7" d="M5530.45 5606.8c90.76,16.01 151.86,106.55 136.49,202.25 -15.38,95.69 -101.42,160.29 -192.18,144.29 -90.76,-16.01 -151.86,-106.55 -136.48,-202.24 15.38,-95.7 101.42,-160.3 192.17,-144.3z"/>
   <path class="fil7" d="M5144.13 6037.79c46.58,8.21 77.94,54.69 70.05,103.8 -7.9,49.11 -52.05,82.27 -98.64,74.06 -46.58,-8.22 -77.95,-54.69 -70.05,-103.81 7.9,-49.11 52.05,-82.27 98.64,-74.06z"/>
   <path class="fil9" d="M4763.35 5389.72c330.39,-152.28 681.18,-191.74 1073.64,-109.35 -99.51,-118.93 -229.9,-201.24 -380.38,-227.77 -265.56,-46.83 -526.29,91.96 -693.26,337.12z"/>
   <path class="fil9" d="M4720.47 5460.49c58.04,-111.04 87.06,-166.56 87.06,-166.56 -113.36,23.29 -194.64,-24.12 -243.85,-142.21 -0.73,80.4 46.82,149.01 142.64,205.84 -163.36,-9.09 -238.27,-71.57 -224.74,-187.46 -41.13,120.69 38.5,217.49 238.88,290.39z"/>
   <path class="fil9" d="M5877.88 7090.41c-348.29,-620.85 -876.25,-835.71 -1583.86,-644.59 633.29,-114.31 1161.24,100.56 1583.86,644.59z"/>
   <path class="fil9" d="M4984.4 4763.36c147.62,-140.26 346.17,-205.08 542.87,-177.23 196.7,27.85 371.63,145.55 478.27,321.8 -268.42,-288.81 -688.96,-348.35 -1021.14,-144.57z"/>
   <path class="fil9" d="M7411.46 5349.14c-417.66,-73.64 -824,288.27 -907.58,808.36 -48.81,303.71 23.28,594.16 174.85,797.97 351.47,-191.69 721.11,-194.66 1108.93,-8.84 113.39,-138.62 195.91,-318.34 228.71,-522.43 83.58,-520.09 -187.24,-1001.41 -604.9,-1075.05z"/>
   <path class="fil12" d="M7403.7 5397.44c-396.24,-69.87 -781.74,273.48 -861.03,766.89 -47.36,294.73 25.26,576.3 175.86,770.19 327.46,-164.7 670.57,-166.75 1029.33,-6.3 114.13,-133.45 197.39,-309.68 229.72,-510.88 79.3,-493.41 -177.64,-950.04 -573.87,-1019.91z"/>
   <path class="fil3" d="M7371.33 5642.31c-341.09,-60.14 -664.44,182.65 -722.24,542.29 -43.37,269.9 75.15,528.9 281.16,666.77 210.31,-60 426.83,-55.56 649.54,13.24 155.94,-95.33 272.04,-260.36 304.48,-462.22 57.8,-359.63 -171.86,-699.93 -512.94,-760.08z"/>
   <path class="fil13" d="M7362.29 5698.54c-311.63,-54.95 -607.07,166.88 -659.88,495.46 -42.92,267.06 87.65,522.44 305.37,638.22 161.04,-33.63 325.67,-30.01 493.88,10.81 167.87,-80.24 296.2,-244.18 329.28,-450.04 52.81,-328.58 -157.02,-639.5 -468.65,-694.45zm-198.09 1188.61c2.29,0.43 4.57,0.9 6.87,1.31 68.72,12.12 136.66,10.76 201.38,-2.22 -69.36,-4.91 -138.78,-4.62 -208.25,0.92z"/>
   <path class="fil4" d="M7326.56 5920.88c-195.17,-34.41 -380.2,104.51 -413.28,310.3 -33.07,205.79 98.34,400.51 293.51,434.92 195.17,34.41 380.2,-104.51 413.28,-310.3 33.07,-205.78 -98.34,-400.51 -293.51,-434.92z"/>
   <path class="fil7" d="M7161.33 5894.38c-90.75,-16.01 -176.8,48.6 -192.17,144.29 -15.38,95.69 45.73,186.24 136.48,202.24 90.76,16.01 176.8,-48.6 192.17,-144.29 15.38,-95.69 -45.73,-186.24 -136.48,-202.24z"/>
   <path class="fil7" d="M7391.65 6434.08c-46.59,-8.21 -90.74,24.95 -98.64,74.07 -7.9,49.11 23.47,95.59 70.05,103.8 46.59,8.22 90.74,-24.94 98.64,-74.06 7.89,-49.11 -23.47,-95.59 -70.05,-103.81z"/>
   <path class="fil9" d="M7953.92 5951.88c-264.58,-257.19 -583.71,-414.78 -980.29,-471.51 131.19,-78.25 280.13,-111.31 430.61,-84.78 265.56,46.83 468.55,267.37 549.68,556.28z"/>
   <path class="fil9" d="M7972.4 6033.89c-20.14,-124.83 -30.21,-187.24 -30.21,-187.24 99.83,60.88 191.45,43.96 274.86,-50.75 -24.44,76.22 -90.81,124.74 -199.12,145.57 157.2,47.44 247.51,14.09 270.94,-100.06 1.14,128.15 -104.35,192.3 -316.47,192.47z"/>
   <path class="fil9" d="M6369.33 7177.07c523.15,-467.19 1089.16,-489.15 1698.04,-65.9 -562.66,-325.18 -1128.67,-303.22 -1698.04,65.9z"/>
   <path class="fil9" d="M7940.91 5284.67c-95.64,-183.15 -262.99,-312.49 -457.56,-353.63 -194.56,-41.14 -396.64,10.08 -552.49,140.05 343.89,-180.85 759.87,-92.88 1010.05,213.58z"/>
   <path class="fil5" d="M8276.46 6741.89c40.36,27.83 48.61,89.7 18.45,138.22 -30.17,48.5 -87.33,65.28 -127.69,37.44 -40.35,-27.83 -48.61,-89.71 -18.44,-138.22 30.16,-48.5 87.33,-65.28 127.69,-37.44z"/>
   <path class="fil5" d="M8486.14 7340c40.36,27.84 48.61,89.71 18.45,138.22 -30.16,48.51 -87.33,65.28 -127.69,37.45 -40.35,-27.83 -48.6,-89.71 -18.44,-138.22 30.16,-48.51 87.33,-65.28 127.69,-37.45z"/>
   <path class="fil5" d="M8133.34 8230.98c40.35,27.83 48.6,89.71 18.44,138.22 -30.16,48.5 -87.33,65.28 -127.69,37.45 -40.36,-27.83 -48.61,-89.71 -18.45,-138.22 30.16,-48.5 87.33,-65.28 127.69,-37.45z"/>
   <path class="fil14" d="M21938.97 3480.63c364.5,-25.52 638.14,250.29 660.57,587.48 24.17,363.46 -233.06,658 -570.59,674.77 -365.59,18.16 -641.04,-246.67 -663.09,-587.3 -8.74,-135.15 23.38,-266.91 89.85,-377.49 29.76,-49.51 42.24,-62.11 75.17,-100.76 3.12,-3.67 5.97,-7.44 9.38,-10.58 8.07,-7.43 11.77,-11.49 19.31,-19.37l41.52 -35.91c96.34,-75.53 205.95,-121.61 337.87,-130.84zm5.61 -159.65c-441.69,19.45 -806.53,368.68 -784.23,832.06 8.09,168 69.58,316.9 164.81,439.89 15.8,20.41 30.05,35.75 46.42,54.47 3.98,4.55 8.23,7.85 12.4,12.22 21.39,22.44 42.96,41.34 66.68,61.17 64.37,53.82 145.24,98.05 224.46,129.71 204.2,81.6 474.55,75.43 672.23,-22.47 23.36,-11.56 44.75,-22.09 66.13,-34.74 61.23,-36.22 122.28,-82.33 170.53,-133.25 29.95,-31.61 42.31,-45.85 69.44,-81.86 174.6,-231.7 202.66,-562.62 68.36,-822.43 -30.66,-59.31 -61.3,-104.61 -101.15,-151.02 -17.61,-20.51 -29.79,-33.72 -48.84,-52.04 -45.64,-43.9 -86.05,-77.1 -142.3,-111.03 -144.96,-87.42 -306.64,-128.54 -484.93,-120.69z"/>
   <path class="fil14" d="M21973.88 4076.68c-5.45,2.62 -103.06,3.5 -111.01,0.91l-0.3 -223.61c0.42,-5.65 -0.15,-1.46 1.89,-3.25 33.13,-11.26 119.68,-11.5 155.53,-5.56 140.81,23.32 135.85,145.54 83.99,190.59 -13.98,12.14 -34.15,22.51 -56.36,29.21 -17.17,5.18 -54.77,13.17 -73.74,11.72zm197.17 49.31c19.98,-7.9 37.68,-13.19 56.23,-23.24 33.88,-18.35 64,-42.05 84.52,-74.99 36.24,-58.17 30.89,-132.52 2.29,-190.36 -17.84,-36.07 -45.48,-60.89 -78.6,-80.9 -74.47,-44.97 -170.32,-51.04 -268.71,-50.36 -96.15,0.67 -200.52,9.21 -294.31,24.06l0.08 791.27 185.64 0.03 0.45 -313.56c33.56,-2.47 118.18,-1.11 150.36,6.12 43.97,9.88 74.09,33.85 89.64,68.7 12.31,27.58 35.6,139.66 51.2,185.62 11.6,34.19 12.41,28.83 25.54,53.1l195.59 -0.41c-3.25,-8.12 -7.87,-16.52 -11.56,-25.24 -30.56,-72.17 -35.27,-131.69 -55.19,-200.51 -11.26,-38.93 -25.93,-72.92 -46.57,-100.04 -25.73,-33.84 -48.22,-44.68 -86.57,-59.88l-0.02 -9.43z"/>
  </g>
 </g>
</svg>
